<mxfile host="app.diagrams.net" modified="2022-01-29T21:33:51.950Z" agent="5.0 (Windows NT 10.0; Win64; x64) AppleWebKit/537.36 (KHTML, like Gecko) Chrome/97.0.4692.99 Safari/537.36" etag="pORQgkvUjLfllVdQan3m" version="16.5.2" type="github">
  <diagram id="5g_qDqBpSWn1BkIeY96C" name="Page-1">
    <mxGraphModel dx="1422" dy="1872" grid="1" gridSize="10" guides="1" tooltips="1" connect="1" arrows="1" fold="1" page="1" pageScale="1" pageWidth="850" pageHeight="1100" math="0" shadow="0">
      <root>
        <mxCell id="0" />
        <mxCell id="1" parent="0" />
        <mxCell id="wzs6VpyGKfESh36TXmtD-1" value="com.findmyrecycling&lt;br&gt;&lt;br&gt;&lt;br&gt;&lt;br&gt;&lt;br&gt;&lt;br&gt;&lt;br&gt;&lt;br&gt;&lt;br&gt;&lt;br&gt;&lt;br&gt;&lt;br&gt;&lt;br&gt;&lt;br&gt;&lt;br&gt;&lt;br&gt;&lt;br&gt;&lt;br&gt;&lt;br&gt;&lt;br&gt;&lt;br&gt;" style="shape=folder;fontStyle=1;spacingTop=10;tabWidth=40;tabHeight=14;tabPosition=left;html=1;" vertex="1" parent="1">
          <mxGeometry x="60" y="-340" width="420" height="360" as="geometry" />
        </mxCell>
        <mxCell id="wzs6VpyGKfESh36TXmtD-2" value="com.findmyrecycling.dao&lt;br&gt;&lt;br&gt;&lt;br&gt;&lt;br&gt;&lt;br&gt;&lt;br&gt;&lt;br&gt;&lt;br&gt;&lt;br&gt;&lt;br&gt;&lt;br&gt;&lt;br&gt;&lt;br&gt;&lt;br&gt;&lt;br&gt;&lt;br&gt;&lt;br&gt;&lt;br&gt;&lt;br&gt;&lt;br&gt;" style="shape=folder;fontStyle=1;spacingTop=10;tabWidth=40;tabHeight=14;tabPosition=left;html=1;" vertex="1" parent="1">
          <mxGeometry x="830" y="439" width="420" height="360" as="geometry" />
        </mxCell>
        <mxCell id="wzs6VpyGKfESh36TXmtD-3" value="com.findmyrecycling.dto&lt;br&gt;&lt;br&gt;&lt;br&gt;&lt;br&gt;&lt;br&gt;&lt;br&gt;&lt;br&gt;&lt;br&gt;&lt;br&gt;&lt;br&gt;&lt;br&gt;&lt;br&gt;&lt;br&gt;&lt;br&gt;&lt;br&gt;&lt;br&gt;&lt;br&gt;&lt;br&gt;&lt;br&gt;&lt;br&gt;" style="shape=folder;fontStyle=1;spacingTop=10;tabWidth=40;tabHeight=14;tabPosition=left;html=1;" vertex="1" parent="1">
          <mxGeometry x="80" y="490" width="540" height="410" as="geometry" />
        </mxCell>
        <mxCell id="wzs6VpyGKfESh36TXmtD-4" value="com.findmyrecycling.ui&lt;br&gt;&lt;br&gt;&lt;br&gt;&lt;br&gt;&lt;br&gt;&lt;br&gt;&lt;br&gt;&lt;br&gt;&lt;br&gt;&lt;br&gt;&lt;br&gt;&lt;br&gt;&lt;br&gt;&lt;br&gt;&lt;br&gt;&lt;br&gt;&lt;br&gt;&lt;br&gt;&lt;br&gt;&lt;br&gt;&lt;br&gt;&lt;br&gt;" style="shape=folder;fontStyle=1;spacingTop=10;tabWidth=40;tabHeight=14;tabPosition=left;html=1;" vertex="1" parent="1">
          <mxGeometry x="40" y="40" width="560" height="420" as="geometry" />
        </mxCell>
        <mxCell id="wzs6VpyGKfESh36TXmtD-5" value="com.findmyrecycling.service&lt;br&gt;&lt;br&gt;&lt;br&gt;&lt;br&gt;&lt;br&gt;&lt;br&gt;&lt;br&gt;&lt;br&gt;&lt;br&gt;&lt;br&gt;&lt;br&gt;&lt;br&gt;&lt;br&gt;&lt;br&gt;&lt;br&gt;&lt;br&gt;&lt;br&gt;&lt;br&gt;&lt;br&gt;&lt;br&gt;" style="shape=folder;fontStyle=1;spacingTop=10;tabWidth=40;tabHeight=14;tabPosition=left;html=1;" vertex="1" parent="1">
          <mxGeometry x="660" y="-100" width="790" height="450" as="geometry" />
        </mxCell>
        <mxCell id="wzs6VpyGKfESh36TXmtD-6" value="AppModule" style="swimlane;fontStyle=1;align=center;verticalAlign=top;childLayout=stackLayout;horizontal=1;startSize=26;horizontalStack=0;resizeParent=1;resizeParentMax=0;resizeLast=0;collapsible=1;marginBottom=0;" vertex="1" parent="1">
          <mxGeometry x="80" y="-280" width="160" height="34" as="geometry" />
        </mxCell>
        <mxCell id="wzs6VpyGKfESh36TXmtD-8" value="" style="line;strokeWidth=1;fillColor=none;align=left;verticalAlign=middle;spacingTop=-1;spacingLeft=3;spacingRight=3;rotatable=0;labelPosition=right;points=[];portConstraint=eastwest;" vertex="1" parent="wzs6VpyGKfESh36TXmtD-6">
          <mxGeometry y="26" width="160" height="8" as="geometry" />
        </mxCell>
        <mxCell id="wzs6VpyGKfESh36TXmtD-10" value="RetrofitClientInstance" style="swimlane;fontStyle=1;align=center;verticalAlign=top;childLayout=stackLayout;horizontal=1;startSize=26;horizontalStack=0;resizeParent=1;resizeParentMax=0;resizeLast=0;collapsible=1;marginBottom=0;" vertex="1" parent="1">
          <mxGeometry x="130" y="-160" width="160" height="34" as="geometry" />
        </mxCell>
        <mxCell id="wzs6VpyGKfESh36TXmtD-11" value="" style="line;strokeWidth=1;fillColor=none;align=left;verticalAlign=middle;spacingTop=-1;spacingLeft=3;spacingRight=3;rotatable=0;labelPosition=right;points=[];portConstraint=eastwest;" vertex="1" parent="wzs6VpyGKfESh36TXmtD-10">
          <mxGeometry y="26" width="160" height="8" as="geometry" />
        </mxCell>
        <mxCell id="wzs6VpyGKfESh36TXmtD-26" style="edgeStyle=orthogonalEdgeStyle;rounded=0;orthogonalLoop=1;jettySize=auto;html=1;exitX=1;exitY=0.5;exitDx=0;exitDy=0;entryX=0;entryY=0.5;entryDx=0;entryDy=0;" edge="1" parent="1" source="wzs6VpyGKfESh36TXmtD-12" target="wzs6VpyGKfESh36TXmtD-16">
          <mxGeometry relative="1" as="geometry" />
        </mxCell>
        <mxCell id="wzs6VpyGKfESh36TXmtD-27" style="edgeStyle=orthogonalEdgeStyle;rounded=0;orthogonalLoop=1;jettySize=auto;html=1;exitX=1;exitY=0.5;exitDx=0;exitDy=0;entryX=0;entryY=0.5;entryDx=0;entryDy=0;" edge="1" parent="1" source="wzs6VpyGKfESh36TXmtD-12" target="wzs6VpyGKfESh36TXmtD-20">
          <mxGeometry relative="1" as="geometry" />
        </mxCell>
        <mxCell id="wzs6VpyGKfESh36TXmtD-12" value="MainActivity" style="swimlane;fontStyle=1;align=center;verticalAlign=top;childLayout=stackLayout;horizontal=1;startSize=26;horizontalStack=0;resizeParent=1;resizeParentMax=0;resizeLast=0;collapsible=1;marginBottom=0;" vertex="1" parent="1">
          <mxGeometry x="100" y="150" width="160" height="34" as="geometry" />
        </mxCell>
        <mxCell id="wzs6VpyGKfESh36TXmtD-14" value="" style="line;strokeWidth=1;fillColor=none;align=left;verticalAlign=middle;spacingTop=-1;spacingLeft=3;spacingRight=3;rotatable=0;labelPosition=right;points=[];portConstraint=eastwest;" vertex="1" parent="wzs6VpyGKfESh36TXmtD-12">
          <mxGeometry y="26" width="160" height="8" as="geometry" />
        </mxCell>
        <mxCell id="wzs6VpyGKfESh36TXmtD-16" value="ViewModel" style="swimlane;fontStyle=1;align=center;verticalAlign=top;childLayout=stackLayout;horizontal=1;startSize=26;horizontalStack=0;resizeParent=1;resizeParentMax=0;resizeLast=0;collapsible=1;marginBottom=0;" vertex="1" parent="1">
          <mxGeometry x="370" y="150" width="160" height="34" as="geometry" />
        </mxCell>
        <mxCell id="wzs6VpyGKfESh36TXmtD-18" value="" style="line;strokeWidth=1;fillColor=none;align=left;verticalAlign=middle;spacingTop=-1;spacingLeft=3;spacingRight=3;rotatable=0;labelPosition=right;points=[];portConstraint=eastwest;" vertex="1" parent="wzs6VpyGKfESh36TXmtD-16">
          <mxGeometry y="26" width="160" height="8" as="geometry" />
        </mxCell>
        <mxCell id="wzs6VpyGKfESh36TXmtD-20" value="ApplicationViewModel" style="swimlane;fontStyle=1;align=center;verticalAlign=top;childLayout=stackLayout;horizontal=1;startSize=26;horizontalStack=0;resizeParent=1;resizeParentMax=0;resizeLast=0;collapsible=1;marginBottom=0;" vertex="1" parent="1">
          <mxGeometry x="370" y="290" width="160" height="34" as="geometry" />
        </mxCell>
        <mxCell id="wzs6VpyGKfESh36TXmtD-22" value="" style="line;strokeWidth=1;fillColor=none;align=left;verticalAlign=middle;spacingTop=-1;spacingLeft=3;spacingRight=3;rotatable=0;labelPosition=right;points=[];portConstraint=eastwest;" vertex="1" parent="wzs6VpyGKfESh36TXmtD-20">
          <mxGeometry y="26" width="160" height="8" as="geometry" />
        </mxCell>
        <mxCell id="wzs6VpyGKfESh36TXmtD-28" value="Product" style="swimlane;fontStyle=1;align=center;verticalAlign=top;childLayout=stackLayout;horizontal=1;startSize=26;horizontalStack=0;resizeParent=1;resizeParentMax=0;resizeLast=0;collapsible=1;marginBottom=0;" vertex="1" parent="1">
          <mxGeometry x="100" y="570" width="160" height="98" as="geometry" />
        </mxCell>
        <mxCell id="wzs6VpyGKfESh36TXmtD-29" value="productID: int&#xa;productName: String" style="text;strokeColor=none;fillColor=none;align=left;verticalAlign=top;spacingLeft=4;spacingRight=4;overflow=hidden;rotatable=0;points=[[0,0.5],[1,0.5]];portConstraint=eastwest;" vertex="1" parent="wzs6VpyGKfESh36TXmtD-28">
          <mxGeometry y="26" width="160" height="64" as="geometry" />
        </mxCell>
        <mxCell id="wzs6VpyGKfESh36TXmtD-30" value="" style="line;strokeWidth=1;fillColor=none;align=left;verticalAlign=middle;spacingTop=-1;spacingLeft=3;spacingRight=3;rotatable=0;labelPosition=right;points=[];portConstraint=eastwest;" vertex="1" parent="wzs6VpyGKfESh36TXmtD-28">
          <mxGeometry y="90" width="160" height="8" as="geometry" />
        </mxCell>
        <mxCell id="wzs6VpyGKfESh36TXmtD-32" value="Facility" style="swimlane;fontStyle=1;align=center;verticalAlign=top;childLayout=stackLayout;horizontal=1;startSize=26;horizontalStack=0;resizeParent=1;resizeParentMax=0;resizeLast=0;collapsible=1;marginBottom=0;" vertex="1" parent="1">
          <mxGeometry x="380" y="652" width="160" height="168" as="geometry" />
        </mxCell>
        <mxCell id="wzs6VpyGKfESh36TXmtD-33" value="facilityID: int&#xa;productID: int&#xa;facilityName: String&#xa;facilityDescription: String&#xa;longitude: String&#xa;latitude: String&#xa;" style="text;strokeColor=none;fillColor=none;align=left;verticalAlign=top;spacingLeft=4;spacingRight=4;overflow=hidden;rotatable=0;points=[[0,0.5],[1,0.5]];portConstraint=eastwest;" vertex="1" parent="wzs6VpyGKfESh36TXmtD-32">
          <mxGeometry y="26" width="160" height="134" as="geometry" />
        </mxCell>
        <mxCell id="wzs6VpyGKfESh36TXmtD-34" value="" style="line;strokeWidth=1;fillColor=none;align=left;verticalAlign=middle;spacingTop=-1;spacingLeft=3;spacingRight=3;rotatable=0;labelPosition=right;points=[];portConstraint=eastwest;" vertex="1" parent="wzs6VpyGKfESh36TXmtD-32">
          <mxGeometry y="160" width="160" height="8" as="geometry" />
        </mxCell>
        <mxCell id="wzs6VpyGKfESh36TXmtD-36" value="" style="endArrow=none;html=1;edgeStyle=orthogonalEdgeStyle;rounded=0;" edge="1" parent="1" source="wzs6VpyGKfESh36TXmtD-29" target="wzs6VpyGKfESh36TXmtD-33">
          <mxGeometry relative="1" as="geometry">
            <mxPoint x="450" y="540" as="sourcePoint" />
            <mxPoint x="610" y="540" as="targetPoint" />
          </mxGeometry>
        </mxCell>
        <mxCell id="wzs6VpyGKfESh36TXmtD-37" value="parent" style="edgeLabel;resizable=0;html=1;align=left;verticalAlign=bottom;" connectable="0" vertex="1" parent="wzs6VpyGKfESh36TXmtD-36">
          <mxGeometry x="-1" relative="1" as="geometry" />
        </mxCell>
        <mxCell id="wzs6VpyGKfESh36TXmtD-38" value="child" style="edgeLabel;resizable=0;html=1;align=right;verticalAlign=bottom;" connectable="0" vertex="1" parent="wzs6VpyGKfESh36TXmtD-36">
          <mxGeometry x="1" relative="1" as="geometry" />
        </mxCell>
        <mxCell id="wzs6VpyGKfESh36TXmtD-39" value="«interface»&lt;br&gt;&lt;b&gt;IProductService&lt;/b&gt;" style="html=1;" vertex="1" parent="1">
          <mxGeometry x="730" y="-20" width="170" height="50" as="geometry" />
        </mxCell>
        <mxCell id="wzs6VpyGKfESh36TXmtD-40" value="«interface»&lt;br&gt;&lt;b&gt;IFacilityService&lt;/b&gt;" style="html=1;" vertex="1" parent="1">
          <mxGeometry x="1260" y="10" width="110" height="50" as="geometry" />
        </mxCell>
        <mxCell id="wzs6VpyGKfESh36TXmtD-41" value="ProductService" style="swimlane;fontStyle=1;align=center;verticalAlign=top;childLayout=stackLayout;horizontal=1;startSize=26;horizontalStack=0;resizeParent=1;resizeParentMax=0;resizeLast=0;collapsible=1;marginBottom=0;" vertex="1" parent="1">
          <mxGeometry x="680" y="180" width="160" height="86" as="geometry" />
        </mxCell>
        <mxCell id="wzs6VpyGKfESh36TXmtD-42" value="+ field: type" style="text;strokeColor=none;fillColor=none;align=left;verticalAlign=top;spacingLeft=4;spacingRight=4;overflow=hidden;rotatable=0;points=[[0,0.5],[1,0.5]];portConstraint=eastwest;" vertex="1" parent="wzs6VpyGKfESh36TXmtD-41">
          <mxGeometry y="26" width="160" height="26" as="geometry" />
        </mxCell>
        <mxCell id="wzs6VpyGKfESh36TXmtD-43" value="" style="line;strokeWidth=1;fillColor=none;align=left;verticalAlign=middle;spacingTop=-1;spacingLeft=3;spacingRight=3;rotatable=0;labelPosition=right;points=[];portConstraint=eastwest;" vertex="1" parent="wzs6VpyGKfESh36TXmtD-41">
          <mxGeometry y="52" width="160" height="8" as="geometry" />
        </mxCell>
        <mxCell id="wzs6VpyGKfESh36TXmtD-44" value="+ method(type): type" style="text;strokeColor=none;fillColor=none;align=left;verticalAlign=top;spacingLeft=4;spacingRight=4;overflow=hidden;rotatable=0;points=[[0,0.5],[1,0.5]];portConstraint=eastwest;" vertex="1" parent="wzs6VpyGKfESh36TXmtD-41">
          <mxGeometry y="60" width="160" height="26" as="geometry" />
        </mxCell>
        <mxCell id="wzs6VpyGKfESh36TXmtD-45" value="ProductServiceStub" style="swimlane;fontStyle=1;align=center;verticalAlign=top;childLayout=stackLayout;horizontal=1;startSize=26;horizontalStack=0;resizeParent=1;resizeParentMax=0;resizeLast=0;collapsible=1;marginBottom=0;" vertex="1" parent="1">
          <mxGeometry x="860" y="220" width="160" height="86" as="geometry" />
        </mxCell>
        <mxCell id="wzs6VpyGKfESh36TXmtD-46" value="+ field: type" style="text;strokeColor=none;fillColor=none;align=left;verticalAlign=top;spacingLeft=4;spacingRight=4;overflow=hidden;rotatable=0;points=[[0,0.5],[1,0.5]];portConstraint=eastwest;" vertex="1" parent="wzs6VpyGKfESh36TXmtD-45">
          <mxGeometry y="26" width="160" height="26" as="geometry" />
        </mxCell>
        <mxCell id="wzs6VpyGKfESh36TXmtD-47" value="" style="line;strokeWidth=1;fillColor=none;align=left;verticalAlign=middle;spacingTop=-1;spacingLeft=3;spacingRight=3;rotatable=0;labelPosition=right;points=[];portConstraint=eastwest;" vertex="1" parent="wzs6VpyGKfESh36TXmtD-45">
          <mxGeometry y="52" width="160" height="8" as="geometry" />
        </mxCell>
        <mxCell id="wzs6VpyGKfESh36TXmtD-48" value="+ method(type): type" style="text;strokeColor=none;fillColor=none;align=left;verticalAlign=top;spacingLeft=4;spacingRight=4;overflow=hidden;rotatable=0;points=[[0,0.5],[1,0.5]];portConstraint=eastwest;" vertex="1" parent="wzs6VpyGKfESh36TXmtD-45">
          <mxGeometry y="60" width="160" height="26" as="geometry" />
        </mxCell>
        <mxCell id="wzs6VpyGKfESh36TXmtD-49" value="FacilityService" style="swimlane;fontStyle=1;align=center;verticalAlign=top;childLayout=stackLayout;horizontal=1;startSize=26;horizontalStack=0;resizeParent=1;resizeParentMax=0;resizeLast=0;collapsible=1;marginBottom=0;" vertex="1" parent="1">
          <mxGeometry x="1080" y="200" width="160" height="86" as="geometry" />
        </mxCell>
        <mxCell id="wzs6VpyGKfESh36TXmtD-50" value="+ field: type" style="text;strokeColor=none;fillColor=none;align=left;verticalAlign=top;spacingLeft=4;spacingRight=4;overflow=hidden;rotatable=0;points=[[0,0.5],[1,0.5]];portConstraint=eastwest;" vertex="1" parent="wzs6VpyGKfESh36TXmtD-49">
          <mxGeometry y="26" width="160" height="26" as="geometry" />
        </mxCell>
        <mxCell id="wzs6VpyGKfESh36TXmtD-51" value="" style="line;strokeWidth=1;fillColor=none;align=left;verticalAlign=middle;spacingTop=-1;spacingLeft=3;spacingRight=3;rotatable=0;labelPosition=right;points=[];portConstraint=eastwest;" vertex="1" parent="wzs6VpyGKfESh36TXmtD-49">
          <mxGeometry y="52" width="160" height="8" as="geometry" />
        </mxCell>
        <mxCell id="wzs6VpyGKfESh36TXmtD-52" value="+ method(type): type" style="text;strokeColor=none;fillColor=none;align=left;verticalAlign=top;spacingLeft=4;spacingRight=4;overflow=hidden;rotatable=0;points=[[0,0.5],[1,0.5]];portConstraint=eastwest;" vertex="1" parent="wzs6VpyGKfESh36TXmtD-49">
          <mxGeometry y="60" width="160" height="26" as="geometry" />
        </mxCell>
        <mxCell id="wzs6VpyGKfESh36TXmtD-53" value="FacilityServiceStub" style="swimlane;fontStyle=1;align=center;verticalAlign=top;childLayout=stackLayout;horizontal=1;startSize=26;horizontalStack=0;resizeParent=1;resizeParentMax=0;resizeLast=0;collapsible=1;marginBottom=0;" vertex="1" parent="1">
          <mxGeometry x="1270" y="220" width="160" height="86" as="geometry" />
        </mxCell>
        <mxCell id="wzs6VpyGKfESh36TXmtD-54" value="+ field: type" style="text;strokeColor=none;fillColor=none;align=left;verticalAlign=top;spacingLeft=4;spacingRight=4;overflow=hidden;rotatable=0;points=[[0,0.5],[1,0.5]];portConstraint=eastwest;" vertex="1" parent="wzs6VpyGKfESh36TXmtD-53">
          <mxGeometry y="26" width="160" height="26" as="geometry" />
        </mxCell>
        <mxCell id="wzs6VpyGKfESh36TXmtD-55" value="" style="line;strokeWidth=1;fillColor=none;align=left;verticalAlign=middle;spacingTop=-1;spacingLeft=3;spacingRight=3;rotatable=0;labelPosition=right;points=[];portConstraint=eastwest;" vertex="1" parent="wzs6VpyGKfESh36TXmtD-53">
          <mxGeometry y="52" width="160" height="8" as="geometry" />
        </mxCell>
        <mxCell id="wzs6VpyGKfESh36TXmtD-56" value="+ method(type): type" style="text;strokeColor=none;fillColor=none;align=left;verticalAlign=top;spacingLeft=4;spacingRight=4;overflow=hidden;rotatable=0;points=[[0,0.5],[1,0.5]];portConstraint=eastwest;" vertex="1" parent="wzs6VpyGKfESh36TXmtD-53">
          <mxGeometry y="60" width="160" height="26" as="geometry" />
        </mxCell>
        <mxCell id="wzs6VpyGKfESh36TXmtD-57" value="Use" style="endArrow=open;endSize=12;dashed=1;html=1;rounded=0;" edge="1" parent="1" source="wzs6VpyGKfESh36TXmtD-41" target="wzs6VpyGKfESh36TXmtD-39">
          <mxGeometry width="160" relative="1" as="geometry">
            <mxPoint x="680" y="240" as="sourcePoint" />
            <mxPoint x="840" y="240" as="targetPoint" />
          </mxGeometry>
        </mxCell>
        <mxCell id="wzs6VpyGKfESh36TXmtD-58" value="Use" style="endArrow=open;endSize=12;dashed=1;html=1;rounded=0;entryX=0.5;entryY=1;entryDx=0;entryDy=0;" edge="1" parent="1" source="wzs6VpyGKfESh36TXmtD-45" target="wzs6VpyGKfESh36TXmtD-39">
          <mxGeometry width="160" relative="1" as="geometry">
            <mxPoint x="780.8486238532109" y="190" as="sourcePoint" />
            <mxPoint x="818.6926605504586" y="40" as="targetPoint" />
          </mxGeometry>
        </mxCell>
        <mxCell id="wzs6VpyGKfESh36TXmtD-59" value="Use" style="endArrow=open;endSize=12;dashed=1;html=1;rounded=0;exitX=0.438;exitY=-0.035;exitDx=0;exitDy=0;exitPerimeter=0;" edge="1" parent="1" source="wzs6VpyGKfESh36TXmtD-49" target="wzs6VpyGKfESh36TXmtD-40">
          <mxGeometry width="160" relative="1" as="geometry">
            <mxPoint x="790.8486238532109" y="200" as="sourcePoint" />
            <mxPoint x="828.6926605504586" y="50" as="targetPoint" />
          </mxGeometry>
        </mxCell>
        <mxCell id="wzs6VpyGKfESh36TXmtD-60" value="Use" style="endArrow=open;endSize=12;dashed=1;html=1;rounded=0;" edge="1" parent="1" source="wzs6VpyGKfESh36TXmtD-53" target="wzs6VpyGKfESh36TXmtD-40">
          <mxGeometry width="160" relative="1" as="geometry">
            <mxPoint x="800.8486238532109" y="210" as="sourcePoint" />
            <mxPoint x="838.6926605504586" y="60" as="targetPoint" />
          </mxGeometry>
        </mxCell>
        <mxCell id="wzs6VpyGKfESh36TXmtD-61" value="Use" style="endArrow=open;endSize=12;dashed=1;html=1;rounded=0;exitX=1;exitY=0.25;exitDx=0;exitDy=0;entryX=0;entryY=0.5;entryDx=0;entryDy=0;" edge="1" parent="1" source="wzs6VpyGKfESh36TXmtD-16" target="wzs6VpyGKfESh36TXmtD-39">
          <mxGeometry width="160" relative="1" as="geometry">
            <mxPoint x="810.8486238532109" y="220" as="sourcePoint" />
            <mxPoint x="848.6926605504586" y="70" as="targetPoint" />
          </mxGeometry>
        </mxCell>
        <mxCell id="wzs6VpyGKfESh36TXmtD-62" value="Use" style="endArrow=open;endSize=12;dashed=1;html=1;rounded=0;exitX=1;exitY=0.5;exitDx=0;exitDy=0;" edge="1" parent="1" source="wzs6VpyGKfESh36TXmtD-16" target="wzs6VpyGKfESh36TXmtD-40">
          <mxGeometry width="160" relative="1" as="geometry">
            <mxPoint x="820.8486238532109" y="230" as="sourcePoint" />
            <mxPoint x="858.6926605504586" y="80" as="targetPoint" />
          </mxGeometry>
        </mxCell>
        <mxCell id="wzs6VpyGKfESh36TXmtD-63" value="«interface»&lt;br&gt;&lt;b&gt;IProductServiceDAO&lt;/b&gt;" style="html=1;" vertex="1" parent="1">
          <mxGeometry x="870" y="540" width="140" height="50" as="geometry" />
        </mxCell>
        <mxCell id="wzs6VpyGKfESh36TXmtD-64" value="Use" style="endArrow=open;endSize=12;dashed=1;html=1;rounded=0;" edge="1" parent="1" source="wzs6VpyGKfESh36TXmtD-44" target="wzs6VpyGKfESh36TXmtD-63">
          <mxGeometry width="160" relative="1" as="geometry">
            <mxPoint x="830.8486238532109" y="240" as="sourcePoint" />
            <mxPoint x="868.6926605504586" y="90" as="targetPoint" />
          </mxGeometry>
        </mxCell>
        <mxCell id="wzs6VpyGKfESh36TXmtD-65" value="«interface»&lt;br&gt;&lt;b&gt;IFacilityServiceDAO&lt;/b&gt;" style="html=1;" vertex="1" parent="1">
          <mxGeometry x="1040" y="620" width="140" height="50" as="geometry" />
        </mxCell>
        <mxCell id="wzs6VpyGKfESh36TXmtD-67" value="Use" style="endArrow=open;endSize=12;dashed=1;html=1;rounded=0;" edge="1" parent="1" source="wzs6VpyGKfESh36TXmtD-52" target="wzs6VpyGKfESh36TXmtD-65">
          <mxGeometry width="160" relative="1" as="geometry">
            <mxPoint x="777.5" y="276" as="sourcePoint" />
            <mxPoint x="935.5769230769229" y="550" as="targetPoint" />
          </mxGeometry>
        </mxCell>
        <mxCell id="wzs6VpyGKfESh36TXmtD-68" value="FacilityDatabase" style="swimlane;fontStyle=1;align=center;verticalAlign=top;childLayout=stackLayout;horizontal=1;startSize=26;horizontalStack=0;resizeParent=1;resizeParentMax=0;resizeLast=0;collapsible=1;marginBottom=0;" vertex="1" parent="1">
          <mxGeometry x="1030" y="690" width="160" height="34" as="geometry" />
        </mxCell>
        <mxCell id="wzs6VpyGKfESh36TXmtD-70" value="" style="line;strokeWidth=1;fillColor=none;align=left;verticalAlign=middle;spacingTop=-1;spacingLeft=3;spacingRight=3;rotatable=0;labelPosition=right;points=[];portConstraint=eastwest;" vertex="1" parent="wzs6VpyGKfESh36TXmtD-68">
          <mxGeometry y="26" width="160" height="8" as="geometry" />
        </mxCell>
        <mxCell id="wzs6VpyGKfESh36TXmtD-72" value="RoomDatabase" style="swimlane;fontStyle=1;align=center;verticalAlign=top;childLayout=stackLayout;horizontal=1;startSize=26;horizontalStack=0;resizeParent=1;resizeParentMax=0;resizeLast=0;collapsible=1;marginBottom=0;" vertex="1" parent="1">
          <mxGeometry x="1310" y="570" width="160" height="34" as="geometry" />
        </mxCell>
        <mxCell id="wzs6VpyGKfESh36TXmtD-73" value="" style="line;strokeWidth=1;fillColor=none;align=left;verticalAlign=middle;spacingTop=-1;spacingLeft=3;spacingRight=3;rotatable=0;labelPosition=right;points=[];portConstraint=eastwest;" vertex="1" parent="wzs6VpyGKfESh36TXmtD-72">
          <mxGeometry y="26" width="160" height="8" as="geometry" />
        </mxCell>
        <mxCell id="wzs6VpyGKfESh36TXmtD-74" value="Extends" style="endArrow=block;endSize=16;endFill=0;html=1;rounded=0;exitX=1;exitY=0.5;exitDx=0;exitDy=0;entryX=0;entryY=0.25;entryDx=0;entryDy=0;" edge="1" parent="1" source="wzs6VpyGKfESh36TXmtD-68" target="wzs6VpyGKfESh36TXmtD-72">
          <mxGeometry width="160" relative="1" as="geometry">
            <mxPoint x="680" y="540" as="sourcePoint" />
            <mxPoint x="840" y="540" as="targetPoint" />
          </mxGeometry>
        </mxCell>
      </root>
    </mxGraphModel>
  </diagram>
</mxfile>
